<?xml version="1.0" encoding="utf-8"?><svg xmlns="http://www.w3.org/2000/svg" width="131.5" height="55.5303" viewBox="0 0 131.5 55.5303"><title>c9-work-logo-gray</title><g style="isolation:isolate"><path d="M.2,27.8V9.3A9.5483,9.5483,0,0,1,2.5,2.6,8.445,8.445,0,0,1,8.9.2,7.64,7.64,0,0,1,15,2.7a9.8109,9.8109,0,0,1,2.3,6.8V13H11.6V9a4.4617,4.4617,0,0,0-.7-2.8,2.5828,2.5828,0,0,0-2.1-.9,2.4541,2.4541,0,0,0-2.1.9A4.4617,4.4617,0,0,0,6,9V29.1a4.4617,4.4617,0,0,0,.7,2.8,2.5828,2.5828,0,0,0,2.1.9,2.4541,2.4541,0,0,0,2.1-.9,4.4617,4.4617,0,0,0,.7-2.8V24.2h5.7V28c0,3.2-.7,5.6-2.2,7.3a7.9929,7.9929,0,0,1-6.3,2.6c-2.8,0-4.9-.8-6.4-2.5A11.8477,11.8477,0,0,1,.2,27.8Z" transform="translate(-0.2 6.5029)" fill="#444"/><path d="M19.4,28.5V27.4h5.5v2.4a2.7468,2.7468,0,0,0,2.9,2.9,2.7921,2.7921,0,0,0,2-.8,2.8646,2.8646,0,0,0,.8-2.1V20.9a5.8481,5.8481,0,0,1-2.1,1.5,5.932,5.932,0,0,1-2.3.5,5.87,5.87,0,0,1-5.3-2.8c-1.2-1.9-1.8-4.6-1.8-8.3,0-3.9.7-6.8,2.2-8.7A7.6721,7.6721,0,0,1,27.7.2a7.434,7.434,0,0,1,6.1,2.6c1.4,1.7,2.1,4.2,2.1,7.4V28.7a9.5055,9.5055,0,0,1-2.2,6.7,8.1347,8.1347,0,0,1-6.2,2.4,7.2261,7.2261,0,0,1-5.9-2.5A10.2742,10.2742,0,0,1,19.4,28.5ZM30.6,16.1V8.7a3.6489,3.6489,0,0,0-.8-2.4,2.7923,2.7923,0,0,0-2.2-.9,2.2626,2.2626,0,0,0-2,.9A4.148,4.148,0,0,0,24.9,9v5a5.6317,5.6317,0,0,0,.7,3.2,2.1828,2.1828,0,0,0,2.1,1,3.3714,3.3714,0,0,0,1.7-.5A2.9547,2.9547,0,0,0,30.6,16.1Z" transform="translate(-0.2 6.5029)" fill="#444"/><path d="M45.9,1h5.3l2.5,21.3q.15,1.65.3,3a24.3687,24.3687,0,0,1,.1,2.7v.7a16.3609,16.3609,0,0,1,.1-2c.1-2.9.3-4.6.3-5.1L57.3,1H62l3,21.3c.1.8.2,1.8.3,2.8s.1,2.2.1,3.5a4.1421,4.1421,0,0,1,.1-1c.1-3,.3-5,.4-6L68.2,1h5.3L67.9,37H63.2l-3-20.9c-.1-.8-.2-1.8-.3-2.9s-.1-2.3-.1-3.5c-.1,2-.2,3.5-.3,4.7s-.1,2-.2,2.4L56.3,37H51.7Z" transform="translate(-0.2 6.5029)" fill="#444"/></g><text transform="translate(71.8065 43.5029)" font-size="51" fill="#444" font-family="AlternateGothicNo2BT-Regular, AlternateGothic2 BT" letter-spacing="-0.019em" style="isolation:isolate"> </text><g style="isolation:isolate"><path d="M74.2,9.3a9.5483,9.5483,0,0,1,2.3-6.7A8.445,8.445,0,0,1,82.9.2,7.64,7.64,0,0,1,89,2.7a9.8109,9.8109,0,0,1,2.3,6.8V28c0,3.2-.7,5.6-2.2,7.3a7.9929,7.9929,0,0,1-6.3,2.6c-2.8,0-4.9-.8-6.3-2.6-1.5-1.7-2.2-4.2-2.2-7.5V9.3ZM85.6,29.1V9a4.4617,4.4617,0,0,0-.7-2.8,2.5828,2.5828,0,0,0-2.1-.9,2.4541,2.4541,0,0,0-2.1.9A4.4617,4.4617,0,0,0,80,9V29.1a4.4617,4.4617,0,0,0,.7,2.8,2.5828,2.5828,0,0,0,2.1.9,2.4541,2.4541,0,0,0,2.1-.9A5.4937,5.4937,0,0,0,85.6,29.1Z" transform="translate(-0.2 6.5029)" fill="#444"/><path d="M99.9,21.9V37H94.3V1h8.1c3.1,0,5.3.8,6.6,2.5s2,4.3,2,7.9a16.4108,16.4108,0,0,1-.8,5.5,6.8764,6.8764,0,0,1-2.7,3.4L111.6,37H106l-3.4-15.1Zm0-15.7V16.7h2.2a2.9285,2.9285,0,0,0,2.7-1.2c.5-.8.7-2.2.7-4.3a7.08,7.08,0,0,0-.8-3.9,3.33,3.33,0,0,0-2.8-1.1Z" transform="translate(-0.2 6.5029)" fill="#444"/><path d="M113.7,37V1h5.6V16.2c.2-.6.3-1.1.4-1.5a4.6491,4.6491,0,0,1,.3-.9L125.5,1H131l-6.2,12.3L131.7,37H126l-4.7-18.1-2,4.1V37Z" transform="translate(-0.2 6.5029)" fill="#444"/></g></svg>
