<?xml version="1.0" encoding="utf-8"?><svg xmlns="http://www.w3.org/2000/svg" width="352.1255" height="100.9517" viewBox="0 0 352.1255 100.9517"><g style="isolation:isolate"><path d="M0,73.9062V24.3676C0,16.87,2.1422,10.711,6.1588,6.4266S16.0666,0,23.2965,0c6.9622,0,12.3177,2.1423,16.3343,6.6944S45.79,17.1377,45.79,24.9032v9.3722H30.5264V23.5643c0-3.2133-.5356-5.891-1.8745-7.4977a6.916,6.916,0,0,0-5.6232-2.41c-2.41,0-4.5523.8034-5.6233,2.41-1.3388,1.6067-1.8744,4.2844-1.8744,7.4977v53.823c0,3.2133.5356,5.8911,1.8744,7.4978a6.9162,6.9162,0,0,0,5.6233,2.41c2.41,0,4.5522-.8033,5.6232-2.41,1.3389-1.6067,1.8745-4.2845,1.8745-7.4978V64.2663H45.79V74.4418c0,8.5689-1.8744,14.9955-5.8911,19.5477s-9.64,6.9622-16.87,6.9622c-7.4977,0-13.1211-2.1422-17.1378-6.6944C1.8745,89.1694,0,82.475,0,73.9062Z"/><path d="M51.413,75.7806V72.8351H66.1407v6.4266a7.3553,7.3553,0,0,0,7.7654,7.7655,7.4764,7.4764,0,0,0,5.3555-2.1422,7.6708,7.6708,0,0,0,2.1422-5.6233V55.43a15.6594,15.6594,0,0,1-5.6232,4.0167,17.0093,17.0093,0,0,1-6.1588,1.3389c-6.1588,0-10.9788-2.41-14.1921-7.4978S50.61,40.97,50.61,31.062c0-10.4433,1.8745-18.2088,5.8911-23.2965S66.1407,0,73.6386,0c7.23,0,12.5855,2.41,16.3342,6.9622s5.6233,11.2466,5.6233,19.8154V76.3162c0,7.4977-1.8745,13.6566-5.8911,17.941s-9.64,6.4266-16.6022,6.4266c-6.6944,0-12.05-2.1422-15.7988-6.6944S51.413,83.5461,51.413,75.7806ZM81.4038,42.5764V22.761a9.7706,9.7706,0,0,0-2.1422-6.4266,7.4767,7.4767,0,0,0-5.8911-2.41c-2.41,0-4.2843.8034-5.3555,2.41-1.3389,1.6067-1.8744,4.0166-1.8744,7.23V36.9531c0,3.7489.5355,6.6944,1.8744,8.5689S70.9605,48.2,73.6382,48.2a9.027,9.027,0,0,0,4.5523-1.3389A7.9116,7.9116,0,0,0,81.4038,42.5764Z"/><path d="M122.3737,2.1422h14.1921L143.26,59.1785q.4015,4.4184.8033,8.0333a65.272,65.272,0,0,1,.2677,7.23v1.8745a43.8218,43.8218,0,0,1,.2677-5.3555c.2677-7.7655.8033-12.3178.8033-13.6566L152.9,2.1422h12.5855l8.0333,57.0363c.2677,2.1422.5356,4.82.8033,7.4977.2677,2.9456.2677,5.8911.2677,9.3722V73.3706c.2677-8.0333.8033-13.3888,1.0712-16.0665L181.82,2.1422h14.1921L181.0164,98.5416H168.4309l-8.0333-55.9652c-.2677-2.1422-.5356-4.82-.8033-7.7655s-.2677-6.1589-.2677-9.3722c-.2677,5.3555-.5356,9.3722-.8033,12.5855s-.2677,5.3555-.5356,6.4266l-8.0333,54.0908H137.6368Z"/></g><g style="isolation:isolate"><path d="M198.1543,24.3676c0-7.4977,2.1421-13.6566,6.1588-17.941S214.2208,0,221.4508,0c6.9621,0,12.3177,2.1423,16.3343,6.6944s6.1588,10.4433,6.1588,18.2088V74.4418c0,8.5688-1.8745,14.9955-5.8911,19.5476s-9.64,6.9622-16.87,6.9622c-7.4977,0-13.121-2.1422-16.87-6.9622-4.0167-4.5521-5.8911-11.2465-5.8911-20.0832V24.3676Zm30.5263,53.02V23.5643c0-3.2133-.5355-5.8911-1.8744-7.4977a6.9162,6.9162,0,0,0-5.6233-2.41c-2.41,0-4.5522.8033-5.6232,2.41-1.3389,1.6066-1.8745,4.2844-1.8745,7.4977v53.823c0,3.2133.5356,5.8911,1.8745,7.4977a6.9162,6.9162,0,0,0,5.6232,2.41c2.41,0,4.5523-.8033,5.6233-2.41A14.7106,14.7106,0,0,0,228.6806,77.3873Z"/><path d="M266.9727,58.1074V98.5416H251.9774V2.1422h21.69c8.301,0,14.1921,2.1422,17.6732,6.6944,3.7489,4.2845,5.3555,11.5144,5.3555,21.1543a43.9437,43.9437,0,0,1-2.1422,14.7277,18.4136,18.4136,0,0,1-7.23,9.1044l10.9787,44.7186H283.307l-9.1044-40.4342Zm0-42.0408V44.183h5.8912q5.2215,0,7.23-3.2133c1.3389-2.1422,1.8745-5.891,1.8745-11.5143,0-5.0878-.8033-8.5689-2.1422-10.4433s-4.0166-2.9455-7.4977-2.9455Z"/><path d="M303.9258,98.5416V2.1422h14.9954v40.702c.5356-1.6067.8033-2.9456,1.0712-4.0167a12.4471,12.4471,0,0,1,.8033-2.41L335.5233,2.1422H350.251L333.6489,35.0787l18.4766,63.4629H336.8622L324.2767,50.0741l-5.3555,10.9788V98.5416Z"/></g></svg>
