<?xml version="1.0" encoding="utf-8"?><svg xmlns="http://www.w3.org/2000/svg" width="156.5224" height="44.9369" viewBox="0 0 156.5224 44.9369"><g style="isolation:isolate"><path d="M0,32.8812V10.799A11.417,11.417,0,0,1,2.7376,2.8016,10.0368,10.0368,0,0,1,10.3555-.0631,9.0818,9.0818,0,0,1,17.6162,2.921a11.7313,11.7313,0,0,1,2.7376,8.1167v4.1777H13.5692V10.4409a5.3373,5.3373,0,0,0-.8332-3.3422,3.0705,3.0705,0,0,0-2.5-1.0743A2.9172,2.9172,0,0,0,7.7369,7.0987a5.3367,5.3367,0,0,0-.8333,3.3422v23.992a5.3367,5.3367,0,0,0,.8333,3.3422,3.07,3.07,0,0,0,2.4995,1.0742,2.9178,2.9178,0,0,0,2.5-1.0742,5.3373,5.3373,0,0,0,.8332-3.3422V28.5841h6.7846V33.12c0,3.82-.8332,6.6844-2.6186,8.7135a9.5009,9.5009,0,0,1-7.4988,3.1035c-3.3328,0-5.8324-.9549-7.6178-2.9841C.8332,39.6849,0,36.7008,0,32.8812Z"/><path d="M22.8535,33.7167v-1.313H29.4v2.8647A3.2744,3.2744,0,0,0,32.8518,38.73a3.3184,3.3184,0,0,0,2.3806-.955,3.4246,3.4246,0,0,0,.9522-2.5066V24.6451a6.961,6.961,0,0,1-2.5,1.79,7.5418,7.5418,0,0,1-2.7376.5968A6.9821,6.9821,0,0,1,24.6389,23.69c-1.4283-2.2679-2.1425-5.4907-2.1425-9.9072,0-4.6551.8332-8.1167,2.6186-10.3846A9.1217,9.1217,0,0,1,32.7329-.0631,8.8378,8.8378,0,0,1,39.9936,3.04c1.6664,2.0292,2.5,5.0133,2.5,8.8329V33.9554c0,3.3422-.8332,6.0876-2.6187,7.9974a9.6681,9.6681,0,0,1-7.38,2.8647,8.59,8.59,0,0,1-7.0228-2.9841A12.2867,12.2867,0,0,1,22.8535,33.7167Zm13.3311-14.801V10.0828a4.3634,4.3634,0,0,0-.9522-2.8647,3.319,3.319,0,0,0-2.6186-1.0743,2.69,2.69,0,0,0-2.3806,1.0743A4.9611,4.9611,0,0,0,29.4,10.4409V16.409a6.7373,6.7373,0,0,0,.8332,3.82,2.7156,2.7156,0,0,0,2.5,1.1936,4.0047,4.0047,0,0,0,2.0235-.5968A3.5258,3.5258,0,0,0,36.1846,18.9157Z"/><path d="M54.396.8918h6.3085L63.68,26.3162q.1785,1.97.3571,3.5809a29.1746,29.1746,0,0,1,.119,3.2228v.8355a19.5867,19.5867,0,0,1,.119-2.3872c.119-3.4616.3571-5.4908.3571-6.0876L67.9652.8918H73.56L77.13,26.3162c.119.9549.238,2.1485.357,3.3421.119,1.313.119,2.626.119,4.1777V32.6424c.119-3.5809.3571-5.9681.4762-7.1618L80.82.8918h6.3085L80.4631,43.8626H74.8688l-3.5709-24.947c-.119-.9549-.238-2.1485-.357-3.4615s-.119-2.7453-.119-4.1777c-.119,2.3873-.2381,4.1777-.3571,5.61s-.119,2.3872-.2381,2.8647L66.6559,43.8626H61.1806Z"/></g><g style="isolation:isolate"><path d="M88.0811,10.799a11.417,11.417,0,0,1,2.7376-7.9974A10.0366,10.0366,0,0,1,98.4366-.0631a9.0819,9.0819,0,0,1,7.2607,2.9841,11.7313,11.7313,0,0,1,2.7376,8.1167V33.12c0,3.82-.8332,6.6843-2.6186,8.7135a9.501,9.501,0,0,1-7.4988,3.1035c-3.3328,0-5.8324-.9549-7.4988-3.1035C89.0333,39.8042,88.2,36.82,88.2,32.8812V10.799ZM101.65,34.4329V10.4409a5.3367,5.3367,0,0,0-.8333-3.3422,3.07,3.07,0,0,0-2.4995-1.0743,2.9175,2.9175,0,0,0-2.5,1.0743,5.3373,5.3373,0,0,0-.8332,3.3422v23.992a5.3375,5.3375,0,0,0,.8332,3.3422,3.0708,3.0708,0,0,0,2.5,1.0742,2.9174,2.9174,0,0,0,2.4995-1.0742A6.5713,6.5713,0,0,0,101.65,34.4329Z"/><path d="M118.6714,25.8387V43.8626h-6.6656V.8918h9.6413c3.69,0,6.3085.9549,7.8559,2.9841,1.6664,1.91,2.3805,5.1326,2.3805,9.43a19.6381,19.6381,0,0,1-.9522,6.565,8.2041,8.2041,0,0,1-3.2138,4.0583l4.88,19.9337h-6.6656l-4.047-18.0239Zm0-18.74V19.6318H121.29A3.482,3.482,0,0,0,124.5038,18.2c.5952-.9549.8332-2.626.8332-5.1327,0-2.2678-.357-3.82-.9522-4.6551a3.9584,3.9584,0,0,0-3.3328-1.313Z"/><path d="M135.0973,43.8626V.8918h6.6656V19.035c.238-.7162.357-1.313.4761-1.79a5.5585,5.5585,0,0,1,.3571-1.0743L149.1426.8918h6.5466l-7.38,14.6817,8.213,28.2891h-6.7846l-5.5944-21.6048-2.3805,4.8939V43.8626Z"/></g></svg>
