<svg xmlns="http://www.w3.org/2000/svg" width="156.522" height="44.937"><path d="M0 32.881V10.8a11.417 11.417 0 012.738-7.997 10.037 10.037 0 017.617-2.865 9.082 9.082 0 017.261 2.984 11.731 11.731 0 012.738 8.117v4.177h-6.785v-4.774a5.337 5.337 0 00-.833-3.342 3.07 3.07 0 00-2.5-1.075 2.917 2.917 0 00-2.5 1.075 5.337 5.337 0 00-.832 3.342v23.992a5.337 5.337 0 00.833 3.342 3.07 3.07 0 002.5 1.074 2.918 2.918 0 002.5-1.074 5.337 5.337 0 00.833-3.342v-5.849h6.784v4.536c0 3.82-.833 6.684-2.618 8.713a9.5 9.5 0 01-7.5 3.104c-3.332 0-5.832-.955-7.617-2.984C.833 39.685 0 36.7 0 32.88zm22.854.836v-1.313H29.4v2.864a3.274 3.274 0 003.452 3.462 3.318 3.318 0 002.38-.955 3.425 3.425 0 00.953-2.507V24.645a6.961 6.961 0 01-2.5 1.79 7.542 7.542 0 01-2.738.597 6.982 6.982 0 01-6.308-3.342c-1.428-2.268-2.143-5.49-2.143-9.907 0-4.655.834-8.117 2.619-10.385a9.122 9.122 0 017.618-3.461 8.838 8.838 0 017.26 3.103c1.667 2.03 2.5 5.013 2.5 8.833v22.082c0 3.343-.833 6.088-2.618 7.998a9.668 9.668 0 01-7.38 2.864 8.59 8.59 0 01-7.023-2.984 12.287 12.287 0 01-2.619-8.116zm13.33-14.801v-8.833a4.363 4.363 0 00-.952-2.865 3.319 3.319 0 00-2.618-1.074 2.69 2.69 0 00-2.38 1.074 4.961 4.961 0 00-.834 3.223v5.968a6.737 6.737 0 00.833 3.82 2.716 2.716 0 002.5 1.194 4.005 4.005 0 002.024-.597 3.526 3.526 0 001.428-1.91zM54.396.892h6.309l2.975 25.424q.178 1.97.357 3.581a29.175 29.175 0 01.12 3.223v.835a19.587 19.587 0 01.118-2.387c.12-3.461.357-5.49.357-6.087L67.965.89h5.595l3.57 25.425c.119.955.238 2.149.357 3.342.119 1.313.119 2.626.119 4.178v-1.194c.119-3.58.357-5.968.476-7.161L80.82.89h6.309l-6.666 42.972H74.87l-3.571-24.947c-.12-.955-.238-2.149-.357-3.462s-.12-2.745-.12-4.178c-.118 2.388-.237 4.178-.356 5.61s-.12 2.388-.238 2.865l-3.571 24.112H61.18zm33.685 9.907a11.417 11.417 0 012.738-7.997 10.037 10.037 0 017.618-2.865 9.082 9.082 0 017.26 2.984 11.731 11.731 0 012.738 8.117V33.12c0 3.82-.833 6.684-2.619 8.713a9.501 9.501 0 01-7.499 3.104c-3.332 0-5.832-.955-7.498-3.103-1.786-2.03-2.619-5.014-2.619-8.953V10.8zm13.569 23.634V10.44a5.337 5.337 0 00-.833-3.342 3.07 3.07 0 00-2.5-1.075 2.917 2.917 0 00-2.5 1.075 5.337 5.337 0 00-.833 3.342v23.992a5.338 5.338 0 00.833 3.342 3.07 3.07 0 002.5 1.074 2.917 2.917 0 002.5-1.074 6.571 6.571 0 00.833-3.342zm17.021-8.594v18.024h-6.665V.892h9.641c3.69 0 6.309.955 7.856 2.984 1.666 1.91 2.38 5.133 2.38 9.43a19.638 19.638 0 01-.952 6.565 8.204 8.204 0 01-3.213 4.058l4.88 19.934h-6.666l-4.047-18.024zm0-18.74v12.533h2.619a3.482 3.482 0 003.214-1.432c.595-.955.833-2.626.833-5.133 0-2.268-.357-3.82-.952-4.655a3.958 3.958 0 00-3.333-1.313zm16.426 36.764V.892h6.666v18.143c.238-.716.357-1.313.476-1.79a5.559 5.559 0 01.357-1.074L149.143.89h6.546l-7.38 14.682 8.213 28.29h-6.784l-5.595-21.605-2.38 4.894v16.71z" fill="#fff"/></svg>