<svg xmlns="http://www.w3.org/2000/svg" viewBox="0 0 234.92 174.65"><defs><linearGradient id="a" x1="79.12" y1="23.81" x2="166.4" y2="158.22" gradientUnits="userSpaceOnUse"><stop offset="0" stop-color="#61cae5"/><stop offset=".12" stop-color="#64c6e1"/><stop offset=".25" stop-color="#6dbad3"/><stop offset=".39" stop-color="#7ba7bd"/><stop offset=".54" stop-color="#8f8b9f"/><stop offset=".68" stop-color="#a96877"/><stop offset=".83" stop-color="#c93d48"/><stop offset=".92" stop-color="#df1f26"/></linearGradient></defs><g data-name="Layer 2"><path d="M47 138.06C40.37 123.9 40.84 36.41 83.54 22.4c0 0-15.64 7.29-10.12 27.45 7.2-13.68 20.33-37.22 57.77-43.46 24-2.89-13.15 1.1-6 22.22.24-8.88 59.41-45 108-19.81C246.43 104.69 177 110.06 177 110.06s14.95 2.38 23.83-.5c-9.12 39.84-63.13 42.14-63.13 42.14s20.51 5.11 34.92 2.47c-49.45 32.4-116.86-4.86-116.86-4.86-.27.08-.83-.43-1.58-1.31l112-78a25.09 25.09 0 10-6-6.27L79.9 120.4l-2.23-3.25-30.59 21M183.72 33.74a16.25 16.25 0 11-18.84 13.17 16.24 16.24 0 0118.84-13.17zM54.17 148l-.39-.55.43.52zm-34.43-6.55l8.45-5.5 5.5 8.44-8.44 5.5-5.51-8.44zm-4.37 14.87l-5.5-8.44 8.45-5.5 5.5 8.44-8.45 5.5zm-9.87 6.47L0 154.34l8.45-5.5 5.5 8.44-8.45 5.51zm46.86-13.87l-38.95 25.73-6.95-10.34L45 139.3l7.33 9.62z" fill-rule="evenodd" fill="url(#a)" data-name="logo gradient"/></g></svg>