<svg id="Layer_1" data-name="Layer 1" xmlns="http://www.w3.org/2000/svg" viewBox="0 0 92 53"><defs><style>.cls-1{fill-rule:evenodd;}</style></defs><title>Artboard 1</title><g id="Home_Mobile_dropdown_2subnav" data-name="Home Mobile dropdown 2subnav"><g id="Wells-Lamont"><path id="Fill-1" class="cls-1" d="M39.24.81s-.9,7.48-1.75,13.2c-.77-5.72-2-13.28-2-13.28A.85.85,0,0,0,34.64,0H25a.9.9,0,0,0-.87.78s-.9,7.58-1.75,13.3c-.77-5.72-2-13.19-2-13.19a.92.92,0,0,0-.88-.8H9a.61.61,0,0,0-.48.2A.59.59,0,0,0,8.43.8l6.38,29.4a.61.61,0,0,0,.6.48H28.68a.61.61,0,0,0,.61-.52s.82-5.68,1.41-9.8c.59,4.12,1.41,9.8,1.41,9.8a.6.6,0,0,0,.6.52h2a.5.5,0,0,0,.49-.24c.75-1.3,5.13-7.2,5.13-7.2,3-6.45,9.83-13.08,9.83-13.08.38-.35-.42-1.54-.1-2.21s.13-.38.28-1.56A25.31,25.31,0,0,1,51,1.9,5.63,5.63,0,0,1,51.47,1c.1-.19.7-1,.7-1H40.12a.89.89,0,0,0-.88.75ZM77.92,20.49H68.24V.61A.61.61,0,0,0,67.62,0H53.85l.7,2.34c.21.67.28,1.4.52,2.05a11,11,0,0,1,.51,2.09c0,.32.05,1.4.05,1.4s-.06.23,0,.31a2.38,2.38,0,0,1,.27.32s.17.2.23-.17a7.71,7.71,0,0,1,.66-1.75,5,5,0,0,1,1.46-1.07,9.13,9.13,0,0,0,1.6-2.14,15.08,15.08,0,0,1,.86-1.79c.3-.29.44-.39.57-.26s.25.3.21,1-.13,2-.13,2a11.18,11.18,0,0,1-.34,2.78c-.35,1-.39,1.37-.95,1.71s-.43.43-1.21.51a1.29,1.29,0,0,0-1,.43c-.15.11,0,.29.12.31a2.85,2.85,0,0,1,.41.13,3.88,3.88,0,0,1,.93.56,6.88,6.88,0,0,1,1.73,1.64c.12.36,0,1.69.12,2.05s2.64,4,3,4.74.69,1.89,1.1,2.49,1.17,1.81,1,2.37a5,5,0,0,1-.4.88s-.53.85-.89,1.37-.78,1-1.34.93a1.69,1.69,0,0,1-1.42-.49c-.57-.52-.61-.36-1.18-.76s-.52-.8-.89-1.17a6.57,6.57,0,0,0-1.5-1l-2.46-.92s-.4-.12-.44.23-.09.68-.09.68c-.11.43-.07,5.21-.06,6.29a.61.61,0,0,0,.62.6H77.92a.61.61,0,0,0,.62-.61v-9a.61.61,0,0,0-.62-.61Zm2.86,9h.29a.24.24,0,0,0,.27-.26c0-.25-.17-.25-.27-.25h-.29Zm0-1.07h.54c.18,0,.54,0,.54.44a.37.37,0,0,1-.3.41c.22,0,.23.17.26.38a2.29,2.29,0,0,0,.08.45h-.33c0-.08-.06-.51-.06-.53s-.05-.15-.16-.15h-.27v.68h-.3Zm-.56,1.11a1.12,1.12,0,1,0,1.12-1.11,1.12,1.12,0,0,0-1.12,1.11Zm2.24-.27a1.4,1.4,0,1,1-1.4-1.4,1.4,1.4,0,0,1,1.4,1.4Zm7.86,8.6h.28a.25.25,0,0,0,.28-.26c0-.25-.17-.25-.27-.25h-.29Zm0-.51h.53c.19,0,.54,0,.54.44a.37.37,0,0,1-.29.41c.21,0,.23.17.26.38a1.38,1.38,0,0,0,.08.44h-.33c0-.08-.06-.5-.06-.53s0-.14-.16-.14h-.27v.67h-.3Zm-.56.55a1.12,1.12,0,1,0,1.12-1.11,1.12,1.12,0,0,0-1.12,1.11Zm2.24.29a1.4,1.4,0,1,1-1.4-1.4,1.4,1.4,0,0,1,1.4,1.4ZM83.9,39.8H83V37.87h.88V36.8l3.26-1.09v2.16h1.47V39.8H87.16v2c0,.5.17.66.56.66a3.25,3.25,0,0,0,.79-.07v1.93a10.91,10.91,0,0,1-2.17.29c-1.26,0-2.44-.38-2.44-1.84Zm-8.73-1.67h3l.07,1h0a2.13,2.13,0,0,1,2-1.18c1.28,0,2.2.64,2.2,2.37v4.32H79.4v-4c0-.48-.19-.76-.56-.76s-.61.21-.61.73v4.05H75.17ZM69.84,43c.58,0,.84-.39.84-1.67s-.26-1.68-.84-1.68S69,40,69,41.29s.27,1.67.84,1.67Zm.28-5c2.61,0,3.93,1.34,3.93,3.35s-1.32,3.34-3.93,3.34-3.92-1.34-3.92-3.34,1.31-3.35,3.92-3.35Zm-17.39.19h3.1l.08,1h0A2.23,2.23,0,0,1,58,37.94a2.19,2.19,0,0,1,2.15,1.18,2.21,2.21,0,0,1,2.07-1.18,2.07,2.07,0,0,1,2.28,2.37v4.32H61.34V40.55c0-.45-.25-.7-.55-.7s-.58.21-.58.73v4.05H57V40.55c0-.45-.25-.7-.55-.7s-.57.21-.57.73v4.05H52.73ZM48.8,41.28h-.49c-1,0-1.19.46-1.19.89A.75.75,0,0,0,48,43c.64,0,.83-.41.83-1Zm-.16-1.43c0-.32-.18-.5-.64-.5s-.63.12-.67.65H44.6c.11-1.7,1.8-2.06,3.53-2.06,2.63,0,3.48.76,3.48,2.24v4.26H48.72l-.08-.6a2.43,2.43,0,0,1-2,.79c-1.39,0-2.37-.68-2.37-1.92,0-1.56,1.36-2.2,3.92-2.2h.4Zm-8.81,4.78H43.2V35.15H39.83ZM34,40.08a.8.8,0,0,0-.16-.6.7.7,0,0,0-.49-.13c-.54,0-.7.18-.7.46s.13.42,1,.53c2.63.34,3.33.82,3.33,2s-1,2.24-3.71,2.24c-2.2,0-3.55-.6-3.58-2.29h2.95a1,1,0,0,0,.2.69.69.69,0,0,0,.54.19c.51,0,.66-.24.66-.54s-.08-.39-.5-.46L32.14,42c-1.67-.3-2.31-.74-2.31-1.9s1-2.11,3.4-2.11c2.09,0,3.54.48,3.59,2.14ZM25.8,44.63h3.37V35.15H25.8Zm-5,0h3.36V35.15H20.76Zm-3.37-4.46v-.1c0-.67-.33-1-.83-1s-.85.35-.85,1v.1Zm2.72,2.25c-.24,1.43-1.42,2.21-4,2.21-2,0-3.79-.83-3.79-3.38,0-2.18,1.59-3.31,4-3.31s3.82,1.22,3.82,3.47v.43H15.49V42c0,.73.28,1,.93,1a.79.79,0,0,0,.81-.65ZM0,37.94H3l.53,4.34h0l.79-4.34h3.5l.73,4.34h0l.68-4.34h3l-1.62,6.69H6.85l-.78-4.26H6l-.78,4.26H1.39Z"/></g></g></svg>